<?xml version="1.0" standalone="no"?><!DOCTYPE svg PUBLIC "-//W3C//DTD SVG 1.1//EN" "http://www.w3.org/Graphics/SVG/1.1/DTD/svg11.dtd"><svg t="1772851805653" class="icon" viewBox="0 0 1024 1024" version="1.1" xmlns="http://www.w3.org/2000/svg" p-id="3708" xmlns:xlink="http://www.w3.org/1999/xlink" width="500" height="500"><path d="M0 0h1024v1024H0z" fill="#FFEAEA" fill-opacity="0" p-id="3709"></path><path d="M418.133333 320c-21.333333-51.2-38.4-98.133333-51.2-136.533333-21.333333-55.466667-85.333333-110.933333-119.466666-110.933334-34.133333 0-38.4 25.6-25.6 72.533334-85.333333 12.8-132.266667 17.066667-149.333334 17.066666-29.866667 0-42.666667 29.866667-34.133333 64 4.266667 29.866667 21.333333 55.466667 42.666667 72.533334 25.6 12.8 55.466667 21.333333 89.6 29.866666l17.066666 85.333334L426.666667 341.333333l-8.533334-21.333333z m-196.266666 38.4l-17.066667-68.266667h-17.066667c-29.866667-8.533333-59.733333-17.066667-85.333333-29.866666-12.8-8.533333-21.333333-25.6-25.6-42.666667v-12.8c25.6 0 81.066667-8.533333 170.666667-21.333333l25.6-4.266667-4.266667-21.333333c-4.266667-17.066667-8.533333-29.866667-8.533333-38.4 21.333333 12.8 55.466667 46.933333 68.266666 81.066666 12.8 34.133333 25.6 68.266667 42.666667 115.2l-149.333333 42.666667zM981.333333 307.2c-8.533333-21.333333-34.133333-21.333333-42.666666-4.266667-12.8 29.866667-68.266667 89.6-85.333334 93.866667-25.6 8.533333-128 8.533333-247.466666 0-85.333333-8.533333-140.8-17.066667-157.866667-29.866667l-8.533333-4.266666-243.2 72.533333 4.266666 21.333333c42.666667 179.2 72.533333 307.2 85.333334 379.733334 12.8 59.733333 34.133333 93.866667 59.733333 102.4 29.866667 8.533333 55.466667-12.8 64-42.666667 8.533333-29.866667 12.8-98.133333 17.066667-204.8l285.866666-25.6c8.533333 106.666667 17.066667 183.466667 21.333334 221.866667 4.266667 38.4 25.6 59.733333 55.466666 59.733333 25.6 0 46.933333-21.333333 59.733334-46.933333 12.8-29.866667 25.6-153.6 42.666666-371.2 34.133333-42.666667 51.2-76.8 59.733334-93.866667 17.066667-38.4 25.6-68.266667 25.6-93.866667 8.533333-17.066667 8.533333-25.6 4.266666-34.133333z m-64 106.666667c-8.533333 17.066667-25.6 46.933333-59.733333 93.866666H853.333333v4.266667c-17.066667 213.333333-29.866667 341.333333-38.4 366.933333-4.266667 12.8-12.8 21.333333-17.066666 21.333334-4.266667 0-12.8-8.533333-12.8-25.6-8.533333-38.4-12.8-119.466667-25.6-238.933334v-21.333333l-366.933334 34.133333v21.333334c0 115.2-4.266667 187.733333-12.8 213.333333-12.8 12.8-17.066667 17.066667-17.066666 12.8-8.533333 0-21.333333-25.6-34.133334-68.266667-12.8-68.266667-42.666667-192-81.066666-362.666666l187.733333-55.466667c29.866667 12.8 81.066667 21.333333 166.4 29.866667 128 8.533333 234.666667 8.533333 264.533333 0 12.8-4.266667 38.4-25.6 59.733334-46.933334-4.266667 8.533333-4.266667 12.8-8.533334 21.333334z" fill="#333333" p-id="3710"></path><path d="M119.466667 460.8m-42.666667 0a42.666667 42.666667 0 1 0 85.333333 0 42.666667 42.666667 0 1 0-85.333333 0Z" fill="#333333" p-id="3711"></path></svg>