<?xml version="1.0" standalone="no"?><!DOCTYPE svg PUBLIC "-//W3C//DTD SVG 1.1//EN" "http://www.w3.org/Graphics/SVG/1.1/DTD/svg11.dtd"><svg t="1772689973241" class="icon" viewBox="0 0 1024 1024" version="1.1" xmlns="http://www.w3.org/2000/svg" p-id="4801" width="500" height="500" xmlns:xlink="http://www.w3.org/1999/xlink"><path d="M675.2 581.9a222.1 222.1 0 0 0 60-151.8V250.8a87.3 87.3 0 0 0-41.5-73.9 344.6 344.6 0 0 0-363.5 0 86 86 0 0 0-41.2 73.7V430a222.4 222.4 0 0 0 60 151.6l-1.2 0.8a306.7 306.7 0 0 0-195.3 284.4 32 32 0 0 0 32 32H840a32 32 0 0 0 32-32 306.7 306.7 0 0 0-196.8-284.9zM430 637.7a222.3 222.3 0 0 0 170-2.6l-88 104z m81.6-48.5a159.2 159.2 0 0 1-157.5-140.8c87.9-44.2 227.8-44.2 315.8 0A159.2 159.2 0 0 1 512 589.2z m-135.3 83.3l96.3 120L360 717.6zM553.2 790L650 674.8l14.7 42.7-110 74.4z m-190-558.8a281.4 281.4 0 0 1 296.6 0 22.7 22.7 0 0 1 10.8 19.2v128.8a476 476 0 0 0-318.2 0V250.8a22.7 22.7 0 0 1 11.3-19.3z m-58.1 449.4l-14.2 38.7a31.9 31.9 0 0 0 12.4 37.7l117.6 77.8H218.6a242.8 242.8 0 0 1 86.5-154.2z m300 154.2l115.9-77.9A32.1 32.1 0 0 0 733.3 720L720 681.6a242.4 242.4 0 0 1 85.3 153.2z" fill="#333333" p-id="4802"></path><path d="M471.1 302.6H480v8.9a32 32 0 0 0 64 0v-8.9h8.9a32 32 0 1 0 0-64h-8.9V230a32 32 0 1 0-64 0v9h-8.9a32 32 0 0 0 0 64z" fill="#333333" p-id="4803"></path></svg>