<?xml version="1.0" standalone="no"?><!DOCTYPE svg PUBLIC "-//W3C//DTD SVG 1.1//EN" "http://www.w3.org/Graphics/SVG/1.1/DTD/svg11.dtd"><svg t="1756697086974" class="icon" viewBox="0 0 1024 1024" version="1.1" xmlns="http://www.w3.org/2000/svg" p-id="24544" width="350" height="350" xmlns:xlink="http://www.w3.org/1999/xlink"><path d="M607.459556 944.355556H416.540444v-97.735112a345.088 345.088 0 0 1-73.728-30.492444l-68.949333 68.949333L138.808889 750.136889l69.063111-68.949333a345.088 345.088 0 0 1-30.492444-73.728H79.644444V416.540444h97.735112a345.088 345.088 0 0 1 30.492444-73.728l-69.063111-68.949333L273.863111 138.808889l68.949333 69.063111a345.088 345.088 0 0 1 73.728-30.492444V79.644444h190.919112v97.621334a345.088 345.088 0 0 1 73.728 30.492444l68.949333-68.949333 134.940444 134.940444-68.949333 68.949334a345.088 345.088 0 0 1 30.492444 73.728H944.355556v191.032889h-97.735112a345.088 345.088 0 0 1-30.492444 73.728l68.949333 68.949333-134.940444 134.940444-68.949333-68.949333a345.088 345.088 0 0 1-73.728 30.492444z m-138.581334-52.337778h86.243556v-86.812445l20.48-4.551111A292.636444 292.636444 0 0 0 671.288889 761.173333l17.749333-11.377777 61.212445 61.326222 60.984889-60.984889-61.212445-61.212445 11.377778-17.749333a291.612444 291.612444 0 0 0 39.480889-95.573333l4.551111-20.48h86.584889V468.764444h-86.812445l-4.551111-20.48A292.636444 292.636444 0 0 0 761.173333 352.711111l-11.377777-17.749333 61.212444-61.212445-60.871111-60.984889-61.212445 61.326223-17.749333-11.377778a290.929778 290.929778 0 0 0-95.459555-39.480889l-20.593778-4.551111V131.982222h-86.243556v86.812445l-20.48 4.551111A292.636444 292.636444 0 0 0 352.711111 262.826667l-17.749333 11.377777-61.212445-61.212444-60.984889 60.984889 61.212445 61.212444L262.826667 352.711111a291.953778 291.953778 0 0 0-39.480889 95.459556l-4.551111 20.593777H131.982222v86.243556h86.812445l4.551111 20.48A292.636444 292.636444 0 0 0 262.826667 671.288889l11.377777 17.749333-61.212444 61.212445 60.984889 60.984889 61.212444-61.212445 17.749334 11.377778a291.953778 291.953778 0 0 0 95.459555 39.480889l20.593778 4.551111zM512 749.568A237.681778 237.681778 0 1 1 749.568 512 237.909333 237.909333 0 0 1 512 749.568z m0-422.912A185.344 185.344 0 1 0 697.230222 512 185.571556 185.571556 0 0 0 512 326.656z" fill="#F5CF5C" p-id="24545"></path></svg>