<?xml version="1.0" standalone="no"?><!DOCTYPE svg PUBLIC "-//W3C//DTD SVG 1.1//EN" "http://www.w3.org/Graphics/SVG/1.1/DTD/svg11.dtd"><svg t="1772250909402" class="icon" viewBox="0 0 1024 1024" version="1.1" xmlns="http://www.w3.org/2000/svg" p-id="2517" width="500" height="500" xmlns:xlink="http://www.w3.org/1999/xlink"><path d="M12.8 158.784C12.8 70.592 94.848 12.8 176.64 12.8h649.792c81.408 0 163.776 56.64 163.776 145.984v483.456a51.2 51.2 0 1 1-102.4 0V158.784c0-16.512-18.752-43.584-61.44-43.584H176.64c-42.24 0-61.376 27.648-61.376 43.584V865.28c0 16.512 18.752 43.584 61.44 43.584h490.432a51.2 51.2 0 1 1 0 102.4H176.576C95.168 1011.2 12.8 954.56 12.8 865.216V158.72z" p-id="2518"></path><path d="M743.296 765.952a51.2 51.2 0 0 1 71.296-12.8l174.592 121.216a51.2 51.2 0 0 1-58.368 84.096l-174.656-121.28a51.2 51.2 0 0 1-12.8-71.232z" p-id="2519"></path><path d="M669.888 684.992c0 21.312-17.152 40.128-41.984 46.08-9.536 2.56-19.072 1.728-28.608 0-15.232-3.392-30.528-7.68-45.824-11.968-24.768-5.952-50.56-9.344-77.248-5.952-15.296 1.728-30.528 5.12-45.824 9.408a510.72 510.72 0 0 1-39.104 9.408 58.496 58.496 0 0 1-49.6-12.8c-7.68-6.016-14.336-12.8-16.256-21.376a47.168 47.168 0 0 1 0-23.04c3.84-17.92 12.416-33.344 23.872-49.6 18.112-25.6 41.984-47.808 71.552-66.56 16.256-10.24 34.368-19.712 55.36-23.936 16.192-3.456 32.448-3.456 48.64 0.832 19.072 5.12 36.288 13.696 51.52 23.936 34.368 22.208 61.12 49.536 80.192 81.152 8.576 13.632 14.272 28.16 15.232 43.52-1.92-0.832-1.92 0-1.92 0.896zM483.84 371.52c0 11.904-2.88 24.768-10.496 36.672a58.816 58.816 0 0 1-39.104 28.16 70.4 70.4 0 0 1-41.984-3.328c-20.032-6.848-33.408-19.648-44.8-34.176a92.544 92.544 0 0 1-19.2-69.184 63.68 63.68 0 0 1 22.016-41.024c18.112-15.36 43.904-19.648 67.712-10.24 19.136 6.848 32.448 17.92 42.944 31.616 14.336 16.192 23.872 41.856 22.912 61.44zM510.592 368c0.896-26.432 11.392-52.032 36.224-72.576 11.456-9.344 24.832-17.088 41.984-19.648 20.992-3.392 38.144 0.896 53.44 12.8 14.336 11.968 20.992 27.392 22.912 43.584 2.88 21.376-1.92 40.96-14.336 60.672-9.536 15.36-22.912 29.056-41.984 37.568a73.6 73.6 0 0 1-52.48 5.12 61.76 61.76 0 0 1-31.488-21.376c-10.496-13.632-13.376-28.992-14.272-46.08zM311.168 558.528a92.16 92.16 0 0 1-40.128-10.24c-30.528-16.192-48.64-39.296-56.32-67.456a51.328 51.328 0 0 1 3.84-39.296c9.6-19.648 34.368-29.888 61.12-26.496 20.992 3.456 37.184 11.968 51.52 23.936 22.848 19.648 36.224 42.688 36.224 69.12 0 12.032-2.88 23.104-12.416 32.512-10.496 11.968-23.808 17.088-43.84 17.92zM627.008 506.432c0-19.648 7.616-36.736 20.928-52.928 11.52-13.696 24.832-24.768 43.904-32.448 15.296-6.016 30.528-9.408 47.744-6.016 17.152 3.456 28.608 11.968 35.328 24.768 7.616 14.528 7.616 29.056 3.84 44.416-6.72 22.208-20.096 40.192-42.048 55.552a97.28 97.28 0 0 1-44.8 17.92c-28.672 4.288-53.504-8.512-62.08-29.888-0.96-7.68-2.816-14.528-2.816-21.376z" p-id="2520"></path></svg>