<?xml version="1.0" standalone="no"?><!DOCTYPE svg PUBLIC "-//W3C//DTD SVG 1.1//EN" "http://www.w3.org/Graphics/SVG/1.1/DTD/svg11.dtd"><svg t="1772692960862" class="icon" viewBox="0 0 1024 1024" version="1.1" xmlns="http://www.w3.org/2000/svg" p-id="2614" xmlns:xlink="http://www.w3.org/1999/xlink" width="500" height="500"><path d="M536.896 604.8l-22.624-22.656a32 32 0 0 1 45.248-45.248l22.624 22.624 45.28-45.248-90.528-90.496-203.648 203.648a32 32 0 0 0 0 45.248l45.248 45.248a32 32 0 0 0 45.28 0l22.624-22.624-22.624-22.624a32 32 0 0 1 45.248-45.248l22.624 22.624 45.248-45.28zM288 717.888a96 96 0 0 1 0-135.776l203.648-203.648-45.248-45.248A32 32 0 0 1 491.648 288l271.52 271.52a32 32 0 1 1-45.248 45.248l-45.248-45.248-203.648 203.648a96 96 0 0 1-135.776 0l-22.624 22.624a32 32 0 1 1-45.248-45.248L288 717.92z m452.544-271.52L604.8 310.624a32 32 0 1 1 45.28-45.248l135.744 135.776a32 32 0 1 1-45.248 45.248z" fill="#202425" p-id="2615"></path></svg>