<?xml version="1.0" standalone="no"?><!DOCTYPE svg PUBLIC "-//W3C//DTD SVG 1.1//EN" "http://www.w3.org/Graphics/SVG/1.1/DTD/svg11.dtd"><svg t="1756697027384" class="icon" viewBox="0 0 1024 1024" version="1.1" xmlns="http://www.w3.org/2000/svg" p-id="22108" width="350" height="350" xmlns:xlink="http://www.w3.org/1999/xlink"><path d="M1021.702 219.738c0 26.284-21.306 47.594-47.596 47.594H93.606c-26.288 0-47.596-21.31-47.596-47.594 0-26.286 21.308-47.596 47.596-47.596h880.5c26.284 0 47.596 21.312 47.596 47.596zM926.364 721.574c-50.382 0-91.222-40.846-91.222-91.224s40.84-91.226 91.222-91.226" fill="#80CFF4" p-id="22109"></path><path d="M942.294 757.096H61.792V233.554h880.502v523.542zM85.59 733.298H918.5V257.352H85.59v475.946zM490.146 789.792h23.796v126.494h-23.796z" p-id="22110"></path><path d="M516.918 953.44m-35.696 0a35.696 35.696 0 1 0 71.392 0 35.696 35.696 0 1 0-71.392 0Z" fill="#80CFF4" p-id="22111"></path><path d="M502.044 980.654c-22.442 0-40.7-18.258-40.7-40.698 0-22.442 18.258-40.698 40.7-40.698s40.698 18.256 40.698 40.698c0 22.44-18.256 40.698-40.698 40.698z m0-67.116c-14.57 0-26.422 11.852-26.422 26.42s11.852 26.418 26.422 26.418c14.566 0 26.42-11.85 26.42-26.418s-11.852-26.42-26.42-26.42zM502.044 156.436c-13.144 0-23.798-10.654-23.798-23.798V85.042c0-13.144 10.654-23.798 23.798-23.798 13.142 0 23.796 10.654 23.796 23.798v47.594c0.002 13.146-10.652 23.8-23.796 23.8z" p-id="22112"></path><path d="M942.294 255.434H61.792c-32.804 0-59.494-26.688-59.494-59.494 0-32.804 26.69-59.492 59.494-59.492h880.502c32.804 0 59.494 26.688 59.494 59.492 0.002 32.806-26.686 59.494-59.494 59.494zM61.792 160.244c-19.684 0-35.696 16.014-35.696 35.696 0 19.684 16.012 35.698 35.696 35.698h880.502c19.682 0 35.698-16.014 35.698-35.698 0-19.682-16.016-35.696-35.698-35.696H61.792zM966.092 806.45H37.996c-19.684 0-35.698-16.016-35.698-35.696 0-19.684 16.014-35.696 35.698-35.696h928.096c19.684 0 35.698 16.012 35.698 35.696 0 19.68-16.012 35.696-35.698 35.696zM37.996 758.856a11.91 11.91 0 0 0-11.898 11.898 11.916 11.916 0 0 0 11.898 11.9h928.096a11.916 11.916 0 0 0 11.9-11.9 11.91 11.91 0 0 0-11.9-11.898H37.996z" p-id="22113"></path><path d="M297.308 499.464m-130.886 0a130.886 130.886 0 1 0 261.772 0 130.886 130.886 0 1 0-261.772 0Z" fill="#009944" p-id="22114"></path><path d="M297.308 353.11h164.202v146.356h-164.202z" fill="#FFFFFF" p-id="22115"></path><path d="M321.898 476.36m-130.884 0a130.884 130.884 0 1 0 261.768 0 130.884 130.884 0 1 0-261.768 0Z" fill="#F18D00" p-id="22116"></path><path d="M171.588 931.534H112.094a7.14 7.14 0 0 1 0-14.276h59.494a7.14 7.14 0 0 1 0 14.276z" fill="#E81F1F" p-id="22117"></path><path d="M141.84 961.282a7.136 7.136 0 0 1-7.138-7.138v-59.494a7.14 7.14 0 0 1 14.276 0v59.494a7.136 7.136 0 0 1-7.138 7.138z" fill="#E81F1F" p-id="22118"></path><path d="M181.814 895.84a13.106 13.106 0 0 1-13.088-13.09c0-7.212 5.872-13.09 13.088-13.09a13.106 13.106 0 0 1 13.088 13.09 13.102 13.102 0 0 1-13.088 13.09z m0-19.04a5.956 5.956 0 0 0-5.95 5.95c0 3.284 2.67 5.95 5.95 5.95s5.95-2.666 5.95-5.95a5.956 5.956 0 0 0-5.95-5.95z" fill="#F18D00" p-id="22119"></path><path d="M766.772 77.94m-19.336 0a19.336 19.336 0 1 0 38.672 0 19.336 19.336 0 1 0-38.672 0Z" fill="#58B530" p-id="22120"></path><path d="M108.268 881.78a4.744 4.744 0 0 1-3.2-1.238l-19.246-17.48a4.758 4.758 0 1 1 6.4-7.044l19.244 17.48a4.756 4.756 0 0 1 0.324 6.72 4.738 4.738 0 0 1-3.522 1.562z" fill="#36B8F2" p-id="22121"></path><path d="M89.904 882.662a4.76 4.76 0 0 1-3.522-7.96l17.48-19.246a4.754 4.754 0 0 1 6.72-0.322 4.754 4.754 0 0 1 0.324 6.718l-17.478 19.248a4.74 4.74 0 0 1-3.524 1.562z" fill="#36B8F2" p-id="22122"></path><path d="M850.362 399.514H540.994a14.28 14.28 0 0 1 0-28.558h309.368a14.28 14.28 0 0 1 0 28.558zM719.474 472.88H625.12a14.284 14.284 0 0 1-14.282-14.28 14.282 14.282 0 0 1 14.282-14.28h94.354a14.28 14.28 0 0 1 0 28.56zM570.382 472.88h-29.388a14.28 14.28 0 0 1 0-28.56h29.388a14.282 14.282 0 0 1 0 28.56zM850.362 546.246H540.994a14.28 14.28 0 0 1 0-28.56h309.368a14.282 14.282 0 0 1 0 28.56zM745.652 619.608H664.98a14.28 14.28 0 1 1 0-28.556h80.672a14.28 14.28 0 0 1 0 28.556zM623.928 619.608h-82.934a14.28 14.28 0 0 1 0-28.556h82.934a14.28 14.28 0 0 1 0 28.556z" p-id="22123"></path><path d="M865.218 34.864l-0.51 23.702 19.236 13.862-22.702 6.838-7.234 22.576-13.52-19.48-23.708 0.096 14.346-18.874-7.418-22.522 22.388 7.814z" fill="#F9F493" p-id="22124"></path><path d="M118.034 704.122a11.9 11.9 0 0 1-11.898-11.898V645.42c0-6.574 5.328-11.898 11.898-11.898s11.898 5.324 11.898 11.898v46.804a11.9 11.9 0 0 1-11.898 11.898z" p-id="22125"></path><path d="M118.034 620.038a11.898 11.898 0 0 1-11.898-11.9v-26.57a11.9 11.9 0 0 1 23.796 0v26.57a11.9 11.9 0 0 1-11.898 11.9z" p-id="22126"></path></svg>